REM MD5 022df53594b2cef85ece287be95fb8f2
FILE "Euro Demo 38 (Europe).bin" BINARY
  TRACK 01 MODE2/2352
    INDEX 01 00:00:00
  TRACK 02 AUDIO
    INDEX 00 40:51:33
    INDEX 01 40:53:33
  TRACK 03 AUDIO
    INDEX 00 43:53:30
    INDEX 01 43:55:30
  TRACK 04 AUDIO
    INDEX 00 45:20:49
    INDEX 01 45:22:49
  TRACK 05 AUDIO
    INDEX 00 46:24:14
    INDEX 01 46:26:14
REM LEADOUT 49:27:45
